<?xml version="1.0" encoding="UTF-8"?>
<svg id="Lag_2" data-name="Lag 2" xmlns="http://www.w3.org/2000/svg" viewBox="0 0 239.21 85.51">
  <defs>
    <style>
      .cls-1 {
        letter-spacing: .25em;
      }

      .cls-1, .cls-2 {
        fill: #1d1d1b;
        font-family: FuturaPT-Book, 'Futura PT';
        font-size: 20px;
      }

      .cls-3 {
        letter-spacing: .22em;
      }

      .cls-4 {
        letter-spacing: .2em;
      }

      .cls-5 {
        letter-spacing: .2em;
      }
    </style>
  </defs>
  <path d="m24.85,31.72c-3.33.64-6.71,1-10.11,1.1-1.69.04-3.39.07-5.09.06-.85,0-1.7-.02-2.56-.09-.86-.09-1.73-.15-2.61-.53-.42-.18-.91-.52-1.11-1.08-.2-.55-.08-1.11.1-1.54.35-.89.93-1.57,1.5-2.23,1.17-1.3,2.47-2.42,3.8-3.49,2.67-2.14,5.48-4.06,8.34-5.91,2.86-1.84,5.82-3.55,8.77-5.2,2.96-1.66,5.95-3.28,9.01-4.79,3.06-1.5,6.18-2.92,9.48-4,1.65-.54,3.35-.99,5.17-1.18.91-.08,1.86-.1,2.86.1.98.2,2.08.67,2.83,1.66.77,1.06.82,2.23.78,3.18-.04.99-.26,1.85-.46,2.73-.44,1.73-1.03,3.34-1.64,4.95-1.22,3.21-2.58,6.31-3.91,9.43-2.65,6.29-5.79,12.34-8.86,18.38-3.09,6.02-6.21,12.06-9.59,17.98-3.37,5.92-6.94,11.71-10.75,17.37-.48.71-.98,1.41-1.48,2.12-.53.71-1.02,1.39-1.71,2.14-.18.18-.37.39-.71.63-.1.07-.23.14-.35.2-.07.03-.2.08-.3.11-.1.03-.21.06-.39.07-.3.03-.71-.07-.92-.2-.21-.11-.48-.33-.57-.46-.11-.13-.2-.28-.29-.43-.05-.11-.09-.21-.13-.32-.09-.24-.1-.35-.14-.54-.05-.31-.08-.59-.08-.85-.03-1.03.09-1.91.22-2.81.57-3.52,1.62-6.82,2.87-10.06,1.27-3.23,2.8-6.36,4.62-9.32,1.81-2.99,4.1-5.74,6.56-8.15,4.94-4.84,10.33-8.99,15.68-13.17,5.39-4.14,10.91-8.16,16.82-11.63,5.88-3.47,11.99-6.48,18.17-9.32,6.2-2.79,12.5-5.41,19.07-7.31,6.59-1.83,13.37-2.85,20.16-3.15,3.4-.15,6.8-.14,10.19.02,3.39.18,6.76.55,10.12,1-13.46-1.26-27.21-.53-40.04,3.54-6.4,2.01-12.6,4.72-18.69,7.62-6.07,2.94-12.07,6.05-17.78,9.58-2.86,1.75-5.62,3.65-8.34,5.64-2.72,1.97-5.41,4.01-8.06,6.09-5.27,4.2-10.6,8.41-15.29,13.1-2.34,2.36-4.42,4.84-6.11,7.66-1.72,2.8-3.16,5.79-4.36,8.87-1.18,3.07-2.17,6.27-2.67,9.44-.11.78-.2,1.59-.18,2.25,0,.17.02.31.04.42,0,.02.02.12.02.07,0,0,0-.01-.02-.02-.02-.06-.06-.12-.11-.16-.04-.04-.19-.21-.33-.26-.13-.07-.42-.15-.62-.13-.13.01-.19.03-.24.04-.05.01-.12.04-.15.06-.03,0-.07.04-.08.04,0-.01.12-.1.23-.23.46-.49.97-1.18,1.45-1.83.48-.67.96-1.35,1.43-2.04,3.77-5.56,7.34-11.29,10.69-17.13,3.37-5.83,6.46-11.84,9.61-17.83,3.13-6,6.3-11.96,8.97-18.12,1.36-3.1,2.73-6.19,3.98-9.29.62-1.55,1.22-3.11,1.65-4.66.19-.77.4-1.55.44-2.26.05-.71-.04-1.34-.28-1.67-.26-.38-.8-.7-1.46-.84-.66-.15-1.42-.16-2.19-.11-1.56.13-3.16.51-4.73.99-3.16.97-6.25,2.29-9.29,3.71-3.04,1.42-6.04,2.97-9.02,4.57-2.99,1.58-5.92,3.23-8.81,4.97-2.89,1.74-5.73,3.55-8.42,5.56-1.34,1.01-2.65,2.06-3.78,3.25-.55.59-1.1,1.23-1.39,1.91-.33.71-.18,1.26.53,1.57.67.33,1.52.44,2.34.54.83.09,1.67.14,2.51.17,1.68.07,3.38.08,5.07.11,3.37.05,6.76-.16,10.11-.65Z"/>
  <path d="m40.35,42.65c1.86-.51,3.78-.79,5.76-.85.99,0,2.01.08,3.05.35,1.02.28,2.2.85,2.93,2.06.36.59.52,1.35.51,1.98,0,.63-.11,1.17-.21,1.66l-.62,2.79c-.39,1.8-.71,3.6-.89,5.44-.19,1.82-.4,3.69.1,4.86.55,1.37,1.81,2.56,3.24,3.17,1.44.61,3.18.58,4.75-.14,1.59-.69,2.95-2.02,3.89-3.7-.31,1.91-1.45,3.75-3.15,4.98-.86.6-1.86,1.03-2.94,1.25-1.08.21-2.23.14-3.3-.16-2.18-.6-3.99-2.13-5.07-4.21-.56-1.11-.68-2.35-.69-3.38,0-1.05.09-2.04.19-3.01.25-1.94.6-3.89,1.12-5.78l.83-2.73c.13-.43.21-.83.26-1.15.04-.32.03-.53-.06-.78-.18-.51-.77-.95-1.52-1.3-.76-.34-1.63-.57-2.53-.74-1.81-.34-3.71-.46-5.63-.61Z"/>
  <path d="m76.16,19.72c7.05-3.3,14.33-6.15,21.77-8.46,7.5-2.25,15.21-3.66,23.02-4.35,3.91-.32,7.85-.37,11.78-.1l1.48.1,1.47.18c.98.13,1.96.22,2.94.4.98.18,1.97.38,2.95.68.98.31,1.98.67,2.92,1.37.46.35.93.78,1.24,1.39.32.6.44,1.32.36,1.97-.17,1.31-.84,2.25-1.48,3.09-.68.83-1.41,1.53-2.18,2.2-.79.68-1.62,1.26-2.47,1.81-3.42,2.14-7.04,3.69-10.7,5.14-7.32,2.85-14.81,5.11-22.34,7.16-3.77,1.03-7.54,2-11.32,2.95l-5.67,1.41-2.82.71-1.39.37-.67.19c-.21.06-.46.14-.55.18-.01,0-.04.02.02-.01.14-.11-.14.15.33-.27.86-.43-.17-2.2-.47-2.07-.08-.04-.24-.07-.2-.07-.01,0,0,0,.06,0h.14s.67.04.67.04l1.44.03,2.92.04c1.96.04,3.91.09,5.87.19,3.92.19,7.83.49,11.76,1.04,1.96.28,3.93.61,5.9,1.14.98.28,1.97.57,2.95.99.98.4,1.95.91,2.86,1.61.91.69,1.73,1.59,2.3,2.63.59,1.04.92,2.18,1.01,3.37.06.6-.03,1.19-.07,1.79-.12.57-.24,1.17-.45,1.7-.22.53-.43,1.07-.73,1.54-.27.5-.59.94-.92,1.38-1.33,1.73-2.94,3.06-4.59,4.24-1.66,1.18-3.39,2.2-5.13,3.14-.87.48-1.74.92-2.62,1.37-.89.45-1.8.89-2.72,1.28-1.83.8-3.69,1.5-5.57,2.13-7.52,2.49-15.28,3.98-23.06,4.97-3.9.47-7.8.84-11.74,1-.99.04-1.98.06-2.99.05-1.03-.03-1.97-.01-3.22-.29-.08-.02-.18-.05-.27-.08-.09-.03-.18-.06-.32-.13-.12-.06-.22-.1-.43-.27-.09-.08-.17-.15-.25-.25-.12-.16-.21-.35-.27-.54-.07-.19-.06-.38-.05-.59.02-.2.09-.43.14-.49.09-.19.27-.43.34-.49.2-.21.36-.32.51-.42.58-.38,1.04-.56,1.53-.77.96-.39,1.91-.71,2.85-1.01,3.78-1.18,7.56-2.13,11.35-3.06,3.82-.92,7.72-1.6,11.61-2.1,15.6-1.94,31.29-1.38,46.82-.13,15.53,1.45,30.97,3.62,46.27,6.49-15.41-2.2-30.87-4.07-46.38-5.02-15.48-.95-31.1-1.23-46.4.95-3.82.56-7.59,1.29-11.32,2.26-3.76.96-7.52,1.92-11.17,3.09-.9.3-1.81.6-2.64.95-.41.17-.84.37-1.07.53-.05.03-.09.07-.05.04-.03.02.1-.11.12-.2,0-.02.08-.18.09-.32.02-.15-.01-.28-.04-.41-.03-.14-.1-.27-.19-.37-.05-.06-.07-.09-.12-.13l-.12-.08s-.01,0,.02,0c.03,0,.04.02.08.02.66.15,1.68.18,2.59.19.94,0,1.89-.02,2.85-.07,3.83-.18,7.69-.56,11.51-1.05,7.64-1.01,15.24-2.52,22.49-4.97,1.81-.61,3.59-1.3,5.32-2.06.87-.38,1.71-.79,2.55-1.22.86-.45,1.71-.89,2.54-1.35,1.67-.92,3.3-1.89,4.8-2.98,1.5-1.08,2.9-2.29,3.95-3.66,1.05-1.36,1.71-2.86,1.59-4.36-.05-.75-.27-1.52-.64-2.18-.36-.66-.87-1.23-1.5-1.73-1.27-1-3.02-1.62-4.78-2.13-1.79-.49-3.66-.83-5.55-1.11-3.78-.55-7.64-.87-11.49-1.08-1.93-.1-3.86-.17-5.79-.22l-2.91-.06-1.48-.04-.78-.04-.23-.02c-.07,0-.17-.02-.31-.04-.02,0-.24-.05-.37-.11-.36.11-1.43-1.72-.5-2.2.51-.47.29-.23.48-.37.11-.06.14-.07.19-.09.36-.14.58-.2.84-.28l.73-.2,1.43-.37,2.84-.7,5.67-1.38c3.77-.92,7.54-1.87,11.29-2.87,7.49-2.03,14.96-4.14,22.2-6.8,3.6-1.35,7.18-2.83,10.41-4.77.8-.49,1.57-1.01,2.27-1.59.71-.59,1.4-1.23,1.96-1.9.55-.67,1.02-1.42,1.1-2.06.08-.62-.17-1.13-.81-1.63-.62-.48-1.47-.84-2.33-1.12-.87-.29-1.79-.5-2.72-.68-.93-.19-1.89-.29-2.83-.44l-1.42-.2-1.43-.12c-3.83-.33-7.69-.34-11.55-.12-7.71.46-15.43,1.64-22.9,3.65-7.47,2.12-14.82,4.69-22,7.7Z"/>
  <path d="m102.53,16.16c-1.34,3.82-2.9,7.52-4.53,11.19-1.62,3.67-3.38,7.28-5.15,10.88-1.82,3.58-3.67,7.14-5.65,10.63-1.96,3.5-4.01,6.97-6.27,10.32,1.34-3.82,2.89-7.53,4.53-11.19,1.62-3.67,3.38-7.28,5.16-10.88,1.82-3.57,3.67-7.13,5.65-10.63,1.97-3.5,4.01-6.97,6.27-10.32Z"/>
  <path d="m136.25,11.3c1.41,18.26,1.46,36.62.12,54.89-1.42-18.26-1.45-36.62-.12-54.89h0Z"/>
  <text class="cls-2" transform="translate(149.74 33.07)"><tspan class="cls-5" x="0" y="0">BEAU</tspan><tspan class="cls-3" x="61.6" y="0">T</tspan><tspan class="cls-4" x="74.54" y="0">Y</tspan></text>
  <text class="cls-1" transform="translate(148.89 56.78)"><tspan x="0" y="0">CLINIC</tspan></text>
</svg>